<mxfile host="app.diagrams.net" modified="2023-11-10T22:15:30.293Z" agent="Mozilla/5.0 (Windows NT 10.0; Win64; x64) AppleWebKit/537.36 (KHTML, like Gecko) Chrome/119.0.0.0 Safari/537.36" etag="58E8VrzgOsatMuY2iZF3" version="22.1.0" type="device">
  <diagram id="C5RBs43oDa-KdzZeNtuy" name="Page-1">
    <mxGraphModel dx="2685" dy="1063" grid="1" gridSize="10" guides="1" tooltips="1" connect="1" arrows="1" fold="1" page="1" pageScale="1" pageWidth="827" pageHeight="1169" math="0" shadow="0">
      <root>
        <mxCell id="WIyWlLk6GJQsqaUBKTNV-0" />
        <mxCell id="WIyWlLk6GJQsqaUBKTNV-1" parent="WIyWlLk6GJQsqaUBKTNV-0" />
        <mxCell id="jYzVw2IKuwG-C76uN9EL-2" value="" style="edgeStyle=orthogonalEdgeStyle;rounded=0;orthogonalLoop=1;jettySize=auto;html=1;exitX=0.5;exitY=1;exitDx=0;exitDy=0;entryX=0.5;entryY=0;entryDx=0;entryDy=0;" parent="WIyWlLk6GJQsqaUBKTNV-1" source="jYzVw2IKuwG-C76uN9EL-0" target="jYzVw2IKuwG-C76uN9EL-1" edge="1">
          <mxGeometry relative="1" as="geometry" />
        </mxCell>
        <mxCell id="jYzVw2IKuwG-C76uN9EL-0" value="Start" style="ellipse;whiteSpace=wrap;html=1;" parent="WIyWlLk6GJQsqaUBKTNV-1" vertex="1">
          <mxGeometry x="320" y="180" width="110" height="60" as="geometry" />
        </mxCell>
        <mxCell id="jYzVw2IKuwG-C76uN9EL-4" style="edgeStyle=orthogonalEdgeStyle;rounded=0;orthogonalLoop=1;jettySize=auto;html=1;exitX=0.5;exitY=1;exitDx=0;exitDy=0;entryX=0.5;entryY=0;entryDx=0;entryDy=0;" parent="WIyWlLk6GJQsqaUBKTNV-1" source="jYzVw2IKuwG-C76uN9EL-1" target="jYzVw2IKuwG-C76uN9EL-3" edge="1">
          <mxGeometry relative="1" as="geometry" />
        </mxCell>
        <mxCell id="jYzVw2IKuwG-C76uN9EL-1" value="Input Weather" style="shape=parallelogram;perimeter=parallelogramPerimeter;whiteSpace=wrap;html=1;fixedSize=1;" parent="WIyWlLk6GJQsqaUBKTNV-1" vertex="1">
          <mxGeometry x="315" y="270" width="120" height="60" as="geometry" />
        </mxCell>
        <mxCell id="jYzVw2IKuwG-C76uN9EL-6" style="edgeStyle=orthogonalEdgeStyle;rounded=0;orthogonalLoop=1;jettySize=auto;html=1;exitX=0;exitY=0.5;exitDx=0;exitDy=0;entryX=0.5;entryY=0;entryDx=0;entryDy=0;" parent="WIyWlLk6GJQsqaUBKTNV-1" source="jYzVw2IKuwG-C76uN9EL-3" target="jYzVw2IKuwG-C76uN9EL-5" edge="1">
          <mxGeometry relative="1" as="geometry" />
        </mxCell>
        <mxCell id="jYzVw2IKuwG-C76uN9EL-3" value="weather == &quot;snowy&quot; or weather == &quot;rainy&quot;" style="rhombus;whiteSpace=wrap;html=1;" parent="WIyWlLk6GJQsqaUBKTNV-1" vertex="1">
          <mxGeometry x="307.5" y="350" width="135" height="80" as="geometry" />
        </mxCell>
        <mxCell id="jYzVw2IKuwG-C76uN9EL-12" style="edgeStyle=orthogonalEdgeStyle;rounded=0;orthogonalLoop=1;jettySize=auto;html=1;exitX=0.5;exitY=1;exitDx=0;exitDy=0;" parent="WIyWlLk6GJQsqaUBKTNV-1" source="jYzVw2IKuwG-C76uN9EL-5" edge="1">
          <mxGeometry relative="1" as="geometry">
            <mxPoint x="370" y="560" as="targetPoint" />
          </mxGeometry>
        </mxCell>
        <mxCell id="jYzVw2IKuwG-C76uN9EL-5" value="Output (Yes, you need wear a coat today)" style="shape=parallelogram;perimeter=parallelogramPerimeter;whiteSpace=wrap;html=1;fixedSize=1;" parent="WIyWlLk6GJQsqaUBKTNV-1" vertex="1">
          <mxGeometry x="130" y="440" width="150" height="80" as="geometry" />
        </mxCell>
        <mxCell id="jYzVw2IKuwG-C76uN9EL-11" style="edgeStyle=orthogonalEdgeStyle;rounded=0;orthogonalLoop=1;jettySize=auto;html=1;exitX=0.5;exitY=1;exitDx=0;exitDy=0;" parent="WIyWlLk6GJQsqaUBKTNV-1" source="jYzVw2IKuwG-C76uN9EL-8" target="jYzVw2IKuwG-C76uN9EL-10" edge="1">
          <mxGeometry relative="1" as="geometry" />
        </mxCell>
        <mxCell id="jYzVw2IKuwG-C76uN9EL-8" value="Output (No, you don&#39;t need a coat today)" style="shape=parallelogram;perimeter=parallelogramPerimeter;whiteSpace=wrap;html=1;fixedSize=1;" parent="WIyWlLk6GJQsqaUBKTNV-1" vertex="1">
          <mxGeometry x="490" y="440" width="150" height="80" as="geometry" />
        </mxCell>
        <mxCell id="jYzVw2IKuwG-C76uN9EL-9" style="edgeStyle=orthogonalEdgeStyle;rounded=0;orthogonalLoop=1;jettySize=auto;html=1;exitX=1;exitY=0.5;exitDx=0;exitDy=0;entryX=0.5;entryY=0;entryDx=0;entryDy=0;" parent="WIyWlLk6GJQsqaUBKTNV-1" source="jYzVw2IKuwG-C76uN9EL-3" target="jYzVw2IKuwG-C76uN9EL-8" edge="1">
          <mxGeometry relative="1" as="geometry" />
        </mxCell>
        <mxCell id="jYzVw2IKuwG-C76uN9EL-18" style="edgeStyle=orthogonalEdgeStyle;rounded=0;orthogonalLoop=1;jettySize=auto;html=1;exitX=0;exitY=0.5;exitDx=0;exitDy=0;entryX=0.5;entryY=0;entryDx=0;entryDy=0;" parent="WIyWlLk6GJQsqaUBKTNV-1" source="jYzVw2IKuwG-C76uN9EL-10" target="jYzVw2IKuwG-C76uN9EL-17" edge="1">
          <mxGeometry relative="1" as="geometry" />
        </mxCell>
        <mxCell id="jYzVw2IKuwG-C76uN9EL-20" style="edgeStyle=orthogonalEdgeStyle;rounded=0;orthogonalLoop=1;jettySize=auto;html=1;exitX=1;exitY=0.5;exitDx=0;exitDy=0;entryX=0.5;entryY=0;entryDx=0;entryDy=0;" parent="WIyWlLk6GJQsqaUBKTNV-1" source="jYzVw2IKuwG-C76uN9EL-10" target="jYzVw2IKuwG-C76uN9EL-19" edge="1">
          <mxGeometry relative="1" as="geometry" />
        </mxCell>
        <mxCell id="jYzVw2IKuwG-C76uN9EL-10" value="weather == &quot;sunny&quot;" style="rhombus;whiteSpace=wrap;html=1;" parent="WIyWlLk6GJQsqaUBKTNV-1" vertex="1">
          <mxGeometry x="295" y="560" width="160" height="80" as="geometry" />
        </mxCell>
        <mxCell id="jYzVw2IKuwG-C76uN9EL-13" value="YES" style="text;html=1;strokeColor=none;fillColor=none;align=center;verticalAlign=middle;whiteSpace=wrap;rounded=0;" parent="WIyWlLk6GJQsqaUBKTNV-1" vertex="1">
          <mxGeometry x="210" y="360" width="60" height="30" as="geometry" />
        </mxCell>
        <mxCell id="jYzVw2IKuwG-C76uN9EL-14" value="NO" style="text;html=1;strokeColor=none;fillColor=none;align=center;verticalAlign=middle;whiteSpace=wrap;rounded=0;" parent="WIyWlLk6GJQsqaUBKTNV-1" vertex="1">
          <mxGeometry x="480" y="570" width="60" height="30" as="geometry" />
        </mxCell>
        <mxCell id="jYzVw2IKuwG-C76uN9EL-15" value="YES" style="text;html=1;strokeColor=none;fillColor=none;align=center;verticalAlign=middle;whiteSpace=wrap;rounded=0;" parent="WIyWlLk6GJQsqaUBKTNV-1" vertex="1">
          <mxGeometry x="220" y="570" width="60" height="30" as="geometry" />
        </mxCell>
        <mxCell id="jYzVw2IKuwG-C76uN9EL-16" value="NO" style="text;html=1;strokeColor=none;fillColor=none;align=center;verticalAlign=middle;whiteSpace=wrap;rounded=0;" parent="WIyWlLk6GJQsqaUBKTNV-1" vertex="1">
          <mxGeometry x="490" y="360" width="60" height="30" as="geometry" />
        </mxCell>
        <mxCell id="jYzVw2IKuwG-C76uN9EL-53" style="edgeStyle=orthogonalEdgeStyle;rounded=0;orthogonalLoop=1;jettySize=auto;html=1;exitX=0.5;exitY=1;exitDx=0;exitDy=0;" parent="WIyWlLk6GJQsqaUBKTNV-1" source="jYzVw2IKuwG-C76uN9EL-17" edge="1">
          <mxGeometry relative="1" as="geometry">
            <mxPoint x="190" y="1060" as="targetPoint" />
            <Array as="points">
              <mxPoint x="175" y="1060" />
            </Array>
          </mxGeometry>
        </mxCell>
        <mxCell id="jYzVw2IKuwG-C76uN9EL-17" value="Output (You can go for a walk today)" style="shape=parallelogram;perimeter=parallelogramPerimeter;whiteSpace=wrap;html=1;fixedSize=1;" parent="WIyWlLk6GJQsqaUBKTNV-1" vertex="1">
          <mxGeometry x="100" y="640" width="150" height="80" as="geometry" />
        </mxCell>
        <mxCell id="jYzVw2IKuwG-C76uN9EL-28" style="edgeStyle=orthogonalEdgeStyle;rounded=0;orthogonalLoop=1;jettySize=auto;html=1;exitX=0;exitY=0.5;exitDx=0;exitDy=0;entryX=0.5;entryY=0;entryDx=0;entryDy=0;" parent="WIyWlLk6GJQsqaUBKTNV-1" source="jYzVw2IKuwG-C76uN9EL-19" target="jYzVw2IKuwG-C76uN9EL-27" edge="1">
          <mxGeometry relative="1" as="geometry" />
        </mxCell>
        <mxCell id="jYzVw2IKuwG-C76uN9EL-19" value="weather == &quot;rainy&quot;" style="rhombus;whiteSpace=wrap;html=1;" parent="WIyWlLk6GJQsqaUBKTNV-1" vertex="1">
          <mxGeometry x="445" y="630" width="150" height="80" as="geometry" />
        </mxCell>
        <mxCell id="jYzVw2IKuwG-C76uN9EL-21" value="YES" style="text;html=1;strokeColor=none;fillColor=none;align=center;verticalAlign=middle;whiteSpace=wrap;rounded=0;" parent="WIyWlLk6GJQsqaUBKTNV-1" vertex="1">
          <mxGeometry x="595" y="630" width="60" height="30" as="geometry" />
        </mxCell>
        <mxCell id="jYzVw2IKuwG-C76uN9EL-22" value="NO" style="text;html=1;strokeColor=none;fillColor=none;align=center;verticalAlign=middle;whiteSpace=wrap;rounded=0;" parent="WIyWlLk6GJQsqaUBKTNV-1" vertex="1">
          <mxGeometry x="395" y="630" width="60" height="30" as="geometry" />
        </mxCell>
        <mxCell id="jYzVw2IKuwG-C76uN9EL-51" style="edgeStyle=orthogonalEdgeStyle;rounded=0;orthogonalLoop=1;jettySize=auto;html=1;exitX=1;exitY=0.5;exitDx=0;exitDy=0;" parent="WIyWlLk6GJQsqaUBKTNV-1" source="jYzVw2IKuwG-C76uN9EL-23" edge="1">
          <mxGeometry relative="1" as="geometry">
            <mxPoint x="660" y="1070" as="targetPoint" />
            <Array as="points">
              <mxPoint x="740" y="1070" />
            </Array>
          </mxGeometry>
        </mxCell>
        <mxCell id="jYzVw2IKuwG-C76uN9EL-23" value="Output (You can learn how to write a program or watch films)" style="shape=parallelogram;perimeter=parallelogramPerimeter;whiteSpace=wrap;html=1;fixedSize=1;" parent="WIyWlLk6GJQsqaUBKTNV-1" vertex="1">
          <mxGeometry x="570" y="690" width="180" height="80" as="geometry" />
        </mxCell>
        <mxCell id="jYzVw2IKuwG-C76uN9EL-25" style="edgeStyle=orthogonalEdgeStyle;rounded=0;orthogonalLoop=1;jettySize=auto;html=1;exitX=1;exitY=0.5;exitDx=0;exitDy=0;entryX=0.611;entryY=-0.027;entryDx=0;entryDy=0;entryPerimeter=0;" parent="WIyWlLk6GJQsqaUBKTNV-1" source="jYzVw2IKuwG-C76uN9EL-19" target="jYzVw2IKuwG-C76uN9EL-23" edge="1">
          <mxGeometry relative="1" as="geometry">
            <Array as="points">
              <mxPoint x="690" y="670" />
              <mxPoint x="690" y="690" />
              <mxPoint x="692" y="690" />
            </Array>
          </mxGeometry>
        </mxCell>
        <mxCell id="jYzVw2IKuwG-C76uN9EL-32" style="edgeStyle=orthogonalEdgeStyle;rounded=0;orthogonalLoop=1;jettySize=auto;html=1;exitX=0;exitY=0.5;exitDx=0;exitDy=0;entryX=0.5;entryY=0;entryDx=0;entryDy=0;" parent="WIyWlLk6GJQsqaUBKTNV-1" source="jYzVw2IKuwG-C76uN9EL-27" target="jYzVw2IKuwG-C76uN9EL-31" edge="1">
          <mxGeometry relative="1" as="geometry" />
        </mxCell>
        <mxCell id="jYzVw2IKuwG-C76uN9EL-27" value="weather == &quot;cloudy&quot;" style="rhombus;whiteSpace=wrap;html=1;" parent="WIyWlLk6GJQsqaUBKTNV-1" vertex="1">
          <mxGeometry x="295" y="710" width="170" height="80" as="geometry" />
        </mxCell>
        <mxCell id="jYzVw2IKuwG-C76uN9EL-34" style="edgeStyle=orthogonalEdgeStyle;rounded=0;orthogonalLoop=1;jettySize=auto;html=1;exitX=0;exitY=1;exitDx=0;exitDy=0;entryX=0.5;entryY=0;entryDx=0;entryDy=0;" parent="WIyWlLk6GJQsqaUBKTNV-1" edge="1">
          <mxGeometry relative="1" as="geometry">
            <mxPoint x="467.5" y="750" as="sourcePoint" />
            <mxPoint x="522.5" y="790" as="targetPoint" />
          </mxGeometry>
        </mxCell>
        <mxCell id="jYzVw2IKuwG-C76uN9EL-29" value="NO" style="text;html=1;strokeColor=none;fillColor=none;align=center;verticalAlign=middle;whiteSpace=wrap;rounded=0;" parent="WIyWlLk6GJQsqaUBKTNV-1" vertex="1">
          <mxGeometry x="465" y="720" width="60" height="30" as="geometry" />
        </mxCell>
        <mxCell id="jYzVw2IKuwG-C76uN9EL-30" value="YES" style="text;html=1;strokeColor=none;fillColor=none;align=center;verticalAlign=middle;whiteSpace=wrap;rounded=0;" parent="WIyWlLk6GJQsqaUBKTNV-1" vertex="1">
          <mxGeometry x="230" y="720" width="60" height="30" as="geometry" />
        </mxCell>
        <mxCell id="jYzVw2IKuwG-C76uN9EL-52" style="edgeStyle=orthogonalEdgeStyle;rounded=0;orthogonalLoop=1;jettySize=auto;html=1;exitX=0.5;exitY=1;exitDx=0;exitDy=0;entryX=0.5;entryY=0;entryDx=0;entryDy=0;" parent="WIyWlLk6GJQsqaUBKTNV-1" source="jYzVw2IKuwG-C76uN9EL-31" target="jYzVw2IKuwG-C76uN9EL-47" edge="1">
          <mxGeometry relative="1" as="geometry">
            <Array as="points">
              <mxPoint x="195" y="1060" />
            </Array>
          </mxGeometry>
        </mxCell>
        <mxCell id="jYzVw2IKuwG-C76uN9EL-31" value="Output (It is a good day for shopping&lt;span style=&quot;background-color: initial;&quot;&gt;)&lt;/span&gt;" style="shape=parallelogram;perimeter=parallelogramPerimeter;whiteSpace=wrap;html=1;fixedSize=1;" parent="WIyWlLk6GJQsqaUBKTNV-1" vertex="1">
          <mxGeometry x="120" y="790" width="150" height="80" as="geometry" />
        </mxCell>
        <mxCell id="jYzVw2IKuwG-C76uN9EL-36" style="edgeStyle=orthogonalEdgeStyle;rounded=0;orthogonalLoop=1;jettySize=auto;html=1;exitX=1;exitY=0.5;exitDx=0;exitDy=0;entryX=0.5;entryY=0;entryDx=0;entryDy=0;" parent="WIyWlLk6GJQsqaUBKTNV-1" source="jYzVw2IKuwG-C76uN9EL-33" target="jYzVw2IKuwG-C76uN9EL-35" edge="1">
          <mxGeometry relative="1" as="geometry" />
        </mxCell>
        <mxCell id="jYzVw2IKuwG-C76uN9EL-41" style="edgeStyle=orthogonalEdgeStyle;rounded=0;orthogonalLoop=1;jettySize=auto;html=1;exitX=0;exitY=0.5;exitDx=0;exitDy=0;entryX=0.5;entryY=0;entryDx=0;entryDy=0;" parent="WIyWlLk6GJQsqaUBKTNV-1" source="jYzVw2IKuwG-C76uN9EL-33" target="jYzVw2IKuwG-C76uN9EL-40" edge="1">
          <mxGeometry relative="1" as="geometry" />
        </mxCell>
        <mxCell id="jYzVw2IKuwG-C76uN9EL-33" value="weather == &quot;snowy&quot;" style="rhombus;whiteSpace=wrap;html=1;" parent="WIyWlLk6GJQsqaUBKTNV-1" vertex="1">
          <mxGeometry x="440" y="790" width="160" height="80" as="geometry" />
        </mxCell>
        <mxCell id="jYzVw2IKuwG-C76uN9EL-50" style="edgeStyle=orthogonalEdgeStyle;rounded=0;orthogonalLoop=1;jettySize=auto;html=1;exitX=0.5;exitY=1;exitDx=0;exitDy=0;" parent="WIyWlLk6GJQsqaUBKTNV-1" source="jYzVw2IKuwG-C76uN9EL-35" edge="1">
          <mxGeometry relative="1" as="geometry">
            <mxPoint x="570" y="1070" as="targetPoint" />
            <Array as="points">
              <mxPoint x="660" y="1070" />
            </Array>
          </mxGeometry>
        </mxCell>
        <mxCell id="jYzVw2IKuwG-C76uN9EL-35" value="Output (It is a bad idea to go out&lt;span style=&quot;background-color: initial;&quot;&gt;)&lt;/span&gt;" style="shape=parallelogram;perimeter=parallelogramPerimeter;whiteSpace=wrap;html=1;fixedSize=1;" parent="WIyWlLk6GJQsqaUBKTNV-1" vertex="1">
          <mxGeometry x="585" y="830" width="150" height="80" as="geometry" />
        </mxCell>
        <mxCell id="jYzVw2IKuwG-C76uN9EL-38" value="YES" style="text;html=1;strokeColor=none;fillColor=none;align=center;verticalAlign=middle;whiteSpace=wrap;rounded=0;" parent="WIyWlLk6GJQsqaUBKTNV-1" vertex="1">
          <mxGeometry x="600" y="800" width="60" height="30" as="geometry" />
        </mxCell>
        <mxCell id="jYzVw2IKuwG-C76uN9EL-39" value="NO" style="text;html=1;strokeColor=none;fillColor=none;align=center;verticalAlign=middle;whiteSpace=wrap;rounded=0;" parent="WIyWlLk6GJQsqaUBKTNV-1" vertex="1">
          <mxGeometry x="395" y="800" width="60" height="30" as="geometry" />
        </mxCell>
        <mxCell id="jYzVw2IKuwG-C76uN9EL-45" style="edgeStyle=orthogonalEdgeStyle;rounded=0;orthogonalLoop=1;jettySize=auto;html=1;exitX=1;exitY=0.5;exitDx=0;exitDy=0;" parent="WIyWlLk6GJQsqaUBKTNV-1" source="jYzVw2IKuwG-C76uN9EL-40" target="jYzVw2IKuwG-C76uN9EL-42" edge="1">
          <mxGeometry relative="1" as="geometry" />
        </mxCell>
        <mxCell id="jYzVw2IKuwG-C76uN9EL-48" style="edgeStyle=orthogonalEdgeStyle;rounded=0;orthogonalLoop=1;jettySize=auto;html=1;exitX=0;exitY=0.5;exitDx=0;exitDy=0;" parent="WIyWlLk6GJQsqaUBKTNV-1" source="jYzVw2IKuwG-C76uN9EL-40" target="jYzVw2IKuwG-C76uN9EL-47" edge="1">
          <mxGeometry relative="1" as="geometry" />
        </mxCell>
        <mxCell id="jYzVw2IKuwG-C76uN9EL-40" value="weather == &quot;windy&quot;" style="rhombus;whiteSpace=wrap;html=1;" parent="WIyWlLk6GJQsqaUBKTNV-1" vertex="1">
          <mxGeometry x="345" y="890" width="160" height="80" as="geometry" />
        </mxCell>
        <mxCell id="jYzVw2IKuwG-C76uN9EL-49" style="edgeStyle=orthogonalEdgeStyle;rounded=0;orthogonalLoop=1;jettySize=auto;html=1;exitX=0.5;exitY=1;exitDx=0;exitDy=0;" parent="WIyWlLk6GJQsqaUBKTNV-1" source="jYzVw2IKuwG-C76uN9EL-42" edge="1">
          <mxGeometry relative="1" as="geometry">
            <mxPoint x="430" y="1050" as="targetPoint" />
          </mxGeometry>
        </mxCell>
        <mxCell id="jYzVw2IKuwG-C76uN9EL-42" value="Output (It is a good day for shopping&lt;span style=&quot;background-color: initial;&quot;&gt;)&lt;/span&gt;" style="shape=parallelogram;perimeter=parallelogramPerimeter;whiteSpace=wrap;html=1;fixedSize=1;" parent="WIyWlLk6GJQsqaUBKTNV-1" vertex="1">
          <mxGeometry x="500" y="970" width="150" height="80" as="geometry" />
        </mxCell>
        <mxCell id="jYzVw2IKuwG-C76uN9EL-43" value="YES" style="text;html=1;strokeColor=none;fillColor=none;align=center;verticalAlign=middle;whiteSpace=wrap;rounded=0;" parent="WIyWlLk6GJQsqaUBKTNV-1" vertex="1">
          <mxGeometry x="505" y="900" width="60" height="30" as="geometry" />
        </mxCell>
        <mxCell id="jYzVw2IKuwG-C76uN9EL-46" value="NO" style="text;html=1;strokeColor=none;fillColor=none;align=center;verticalAlign=middle;whiteSpace=wrap;rounded=0;" parent="WIyWlLk6GJQsqaUBKTNV-1" vertex="1">
          <mxGeometry x="307.5" y="900" width="60" height="30" as="geometry" />
        </mxCell>
        <mxCell id="jYzVw2IKuwG-C76uN9EL-47" value="" style="rhombus;whiteSpace=wrap;html=1;" parent="WIyWlLk6GJQsqaUBKTNV-1" vertex="1">
          <mxGeometry x="345" y="1060" width="165" height="80" as="geometry" />
        </mxCell>
        <mxCell id="jYzVw2IKuwG-C76uN9EL-54" style="edgeStyle=orthogonalEdgeStyle;rounded=0;orthogonalLoop=1;jettySize=auto;html=1;exitX=0;exitY=0.5;exitDx=0;exitDy=0;entryX=0.5;entryY=0;entryDx=0;entryDy=0;" parent="WIyWlLk6GJQsqaUBKTNV-1" source="jYzVw2IKuwG-C76uN9EL-56" edge="1">
          <mxGeometry relative="1" as="geometry">
            <mxPoint x="225" y="1140" as="targetPoint" />
          </mxGeometry>
        </mxCell>
        <mxCell id="jYzVw2IKuwG-C76uN9EL-55" style="edgeStyle=orthogonalEdgeStyle;rounded=0;orthogonalLoop=1;jettySize=auto;html=1;exitX=1;exitY=0.5;exitDx=0;exitDy=0;entryX=0.5;entryY=0;entryDx=0;entryDy=0;" parent="WIyWlLk6GJQsqaUBKTNV-1" source="jYzVw2IKuwG-C76uN9EL-56" target="jYzVw2IKuwG-C76uN9EL-62" edge="1">
          <mxGeometry relative="1" as="geometry" />
        </mxCell>
        <mxCell id="jYzVw2IKuwG-C76uN9EL-56" value="weather[0]== &#39;s&#39;" style="rhombus;whiteSpace=wrap;html=1;" parent="WIyWlLk6GJQsqaUBKTNV-1" vertex="1">
          <mxGeometry x="345" y="1060" width="165" height="80" as="geometry" />
        </mxCell>
        <mxCell id="jYzVw2IKuwG-C76uN9EL-57" value="NO" style="text;html=1;strokeColor=none;fillColor=none;align=center;verticalAlign=middle;whiteSpace=wrap;rounded=0;" parent="WIyWlLk6GJQsqaUBKTNV-1" vertex="1">
          <mxGeometry x="530" y="1070" width="60" height="30" as="geometry" />
        </mxCell>
        <mxCell id="jYzVw2IKuwG-C76uN9EL-58" value="YES" style="text;html=1;strokeColor=none;fillColor=none;align=center;verticalAlign=middle;whiteSpace=wrap;rounded=0;" parent="WIyWlLk6GJQsqaUBKTNV-1" vertex="1">
          <mxGeometry x="270" y="1070" width="60" height="30" as="geometry" />
        </mxCell>
        <mxCell id="jYzVw2IKuwG-C76uN9EL-61" style="edgeStyle=orthogonalEdgeStyle;rounded=0;orthogonalLoop=1;jettySize=auto;html=1;exitX=0;exitY=0.5;exitDx=0;exitDy=0;entryX=0.5;entryY=0;entryDx=0;entryDy=0;" parent="WIyWlLk6GJQsqaUBKTNV-1" source="jYzVw2IKuwG-C76uN9EL-62" target="jYzVw2IKuwG-C76uN9EL-69" edge="1">
          <mxGeometry relative="1" as="geometry" />
        </mxCell>
        <mxCell id="jYzVw2IKuwG-C76uN9EL-62" value="weather[0]==&#39;r&#39;" style="rhombus;whiteSpace=wrap;html=1;" parent="WIyWlLk6GJQsqaUBKTNV-1" vertex="1">
          <mxGeometry x="495" y="1130" width="150" height="80" as="geometry" />
        </mxCell>
        <mxCell id="jYzVw2IKuwG-C76uN9EL-63" value="YES" style="text;html=1;strokeColor=none;fillColor=none;align=center;verticalAlign=middle;whiteSpace=wrap;rounded=0;" parent="WIyWlLk6GJQsqaUBKTNV-1" vertex="1">
          <mxGeometry x="645" y="1130" width="60" height="30" as="geometry" />
        </mxCell>
        <mxCell id="jYzVw2IKuwG-C76uN9EL-64" value="NO" style="text;html=1;strokeColor=none;fillColor=none;align=center;verticalAlign=middle;whiteSpace=wrap;rounded=0;" parent="WIyWlLk6GJQsqaUBKTNV-1" vertex="1">
          <mxGeometry x="445" y="1130" width="60" height="30" as="geometry" />
        </mxCell>
        <mxCell id="jYzVw2IKuwG-C76uN9EL-65" style="edgeStyle=orthogonalEdgeStyle;rounded=0;orthogonalLoop=1;jettySize=auto;html=1;exitX=1;exitY=0.5;exitDx=0;exitDy=0;" parent="WIyWlLk6GJQsqaUBKTNV-1" source="jYzVw2IKuwG-C76uN9EL-66" edge="1">
          <mxGeometry relative="1" as="geometry">
            <mxPoint x="620" y="1570" as="targetPoint" />
            <Array as="points">
              <mxPoint x="790" y="1570" />
            </Array>
          </mxGeometry>
        </mxCell>
        <mxCell id="jYzVw2IKuwG-C76uN9EL-66" value="Output (Take umbrella, wear raincoat and rain boots)" style="shape=parallelogram;perimeter=parallelogramPerimeter;whiteSpace=wrap;html=1;fixedSize=1;" parent="WIyWlLk6GJQsqaUBKTNV-1" vertex="1">
          <mxGeometry x="620" y="1190" width="180" height="80" as="geometry" />
        </mxCell>
        <mxCell id="jYzVw2IKuwG-C76uN9EL-67" style="edgeStyle=orthogonalEdgeStyle;rounded=0;orthogonalLoop=1;jettySize=auto;html=1;exitX=1;exitY=0.5;exitDx=0;exitDy=0;entryX=0.611;entryY=-0.027;entryDx=0;entryDy=0;entryPerimeter=0;" parent="WIyWlLk6GJQsqaUBKTNV-1" source="jYzVw2IKuwG-C76uN9EL-62" target="jYzVw2IKuwG-C76uN9EL-66" edge="1">
          <mxGeometry relative="1" as="geometry">
            <Array as="points">
              <mxPoint x="740" y="1170" />
              <mxPoint x="740" y="1190" />
              <mxPoint x="742" y="1190" />
            </Array>
          </mxGeometry>
        </mxCell>
        <mxCell id="jYzVw2IKuwG-C76uN9EL-68" style="edgeStyle=orthogonalEdgeStyle;rounded=0;orthogonalLoop=1;jettySize=auto;html=1;exitX=0;exitY=0.5;exitDx=0;exitDy=0;entryX=0.5;entryY=0;entryDx=0;entryDy=0;" parent="WIyWlLk6GJQsqaUBKTNV-1" source="jYzVw2IKuwG-C76uN9EL-69" target="jYzVw2IKuwG-C76uN9EL-74" edge="1">
          <mxGeometry relative="1" as="geometry" />
        </mxCell>
        <mxCell id="jYzVw2IKuwG-C76uN9EL-69" value="weather[0]==&#39;c&#39;" style="rhombus;whiteSpace=wrap;html=1;" parent="WIyWlLk6GJQsqaUBKTNV-1" vertex="1">
          <mxGeometry x="345" y="1210" width="170" height="80" as="geometry" />
        </mxCell>
        <mxCell id="jYzVw2IKuwG-C76uN9EL-70" style="edgeStyle=orthogonalEdgeStyle;rounded=0;orthogonalLoop=1;jettySize=auto;html=1;exitX=0;exitY=1;exitDx=0;exitDy=0;entryX=0.5;entryY=0;entryDx=0;entryDy=0;" parent="WIyWlLk6GJQsqaUBKTNV-1" source="jYzVw2IKuwG-C76uN9EL-71" edge="1">
          <mxGeometry relative="1" as="geometry">
            <mxPoint x="529.5" y="1270" as="sourcePoint" />
            <mxPoint x="486.9999999999998" y="1410" as="targetPoint" />
            <Array as="points">
              <mxPoint x="515" y="1330" />
              <mxPoint x="470" y="1330" />
              <mxPoint x="470" y="1410" />
            </Array>
          </mxGeometry>
        </mxCell>
        <mxCell id="jYzVw2IKuwG-C76uN9EL-71" value="NO" style="text;html=1;strokeColor=none;fillColor=none;align=center;verticalAlign=middle;whiteSpace=wrap;rounded=0;" parent="WIyWlLk6GJQsqaUBKTNV-1" vertex="1">
          <mxGeometry x="515" y="1220" width="60" height="30" as="geometry" />
        </mxCell>
        <mxCell id="jYzVw2IKuwG-C76uN9EL-72" value="YES" style="text;html=1;strokeColor=none;fillColor=none;align=center;verticalAlign=middle;whiteSpace=wrap;rounded=0;" parent="WIyWlLk6GJQsqaUBKTNV-1" vertex="1">
          <mxGeometry x="280" y="1220" width="60" height="30" as="geometry" />
        </mxCell>
        <mxCell id="jYzVw2IKuwG-C76uN9EL-73" style="edgeStyle=orthogonalEdgeStyle;rounded=0;orthogonalLoop=1;jettySize=auto;html=1;exitX=0.5;exitY=1;exitDx=0;exitDy=0;entryX=0.5;entryY=0;entryDx=0;entryDy=0;" parent="WIyWlLk6GJQsqaUBKTNV-1" source="jYzVw2IKuwG-C76uN9EL-74" edge="1">
          <mxGeometry relative="1" as="geometry">
            <Array as="points">
              <mxPoint x="245" y="1560" />
            </Array>
            <mxPoint x="477.4999999999998" y="1560" as="targetPoint" />
          </mxGeometry>
        </mxCell>
        <mxCell id="jYzVw2IKuwG-C76uN9EL-74" value="Output (You can wear suit or something else&lt;span style=&quot;background-color: initial;&quot;&gt;)&lt;/span&gt;" style="shape=parallelogram;perimeter=parallelogramPerimeter;whiteSpace=wrap;html=1;fixedSize=1;" parent="WIyWlLk6GJQsqaUBKTNV-1" vertex="1">
          <mxGeometry x="170" y="1290" width="150" height="80" as="geometry" />
        </mxCell>
        <mxCell id="jYzVw2IKuwG-C76uN9EL-82" style="edgeStyle=orthogonalEdgeStyle;rounded=0;orthogonalLoop=1;jettySize=auto;html=1;exitX=1;exitY=0.5;exitDx=0;exitDy=0;" parent="WIyWlLk6GJQsqaUBKTNV-1" source="jYzVw2IKuwG-C76uN9EL-84" target="jYzVw2IKuwG-C76uN9EL-86" edge="1">
          <mxGeometry relative="1" as="geometry" />
        </mxCell>
        <mxCell id="jYzVw2IKuwG-C76uN9EL-83" style="edgeStyle=orthogonalEdgeStyle;rounded=0;orthogonalLoop=1;jettySize=auto;html=1;exitX=0;exitY=0.5;exitDx=0;exitDy=0;entryX=0.5;entryY=0;entryDx=0;entryDy=0;" parent="WIyWlLk6GJQsqaUBKTNV-1" source="jYzVw2IKuwG-C76uN9EL-84" target="jYzVw2IKuwG-C76uN9EL-92" edge="1">
          <mxGeometry relative="1" as="geometry">
            <mxPoint x="477.42857142857156" y="1560.034632034632" as="targetPoint" />
          </mxGeometry>
        </mxCell>
        <mxCell id="jYzVw2IKuwG-C76uN9EL-84" value="weather[0]==&#39;w&#39;" style="rhombus;whiteSpace=wrap;html=1;" parent="WIyWlLk6GJQsqaUBKTNV-1" vertex="1">
          <mxGeometry x="395" y="1390" width="160" height="80" as="geometry" />
        </mxCell>
        <mxCell id="jYzVw2IKuwG-C76uN9EL-85" style="edgeStyle=orthogonalEdgeStyle;rounded=0;orthogonalLoop=1;jettySize=auto;html=1;exitX=0.5;exitY=1;exitDx=0;exitDy=0;" parent="WIyWlLk6GJQsqaUBKTNV-1" source="jYzVw2IKuwG-C76uN9EL-86" edge="1">
          <mxGeometry relative="1" as="geometry">
            <mxPoint x="480" y="1550" as="targetPoint" />
          </mxGeometry>
        </mxCell>
        <mxCell id="jYzVw2IKuwG-C76uN9EL-86" value="Output (Wear something warm&lt;span style=&quot;background-color: initial;&quot;&gt;)&lt;/span&gt;" style="shape=parallelogram;perimeter=parallelogramPerimeter;whiteSpace=wrap;html=1;fixedSize=1;" parent="WIyWlLk6GJQsqaUBKTNV-1" vertex="1">
          <mxGeometry x="550" y="1470" width="150" height="80" as="geometry" />
        </mxCell>
        <mxCell id="jYzVw2IKuwG-C76uN9EL-87" value="YES" style="text;html=1;strokeColor=none;fillColor=none;align=center;verticalAlign=middle;whiteSpace=wrap;rounded=0;" parent="WIyWlLk6GJQsqaUBKTNV-1" vertex="1">
          <mxGeometry x="555" y="1400" width="60" height="30" as="geometry" />
        </mxCell>
        <mxCell id="jYzVw2IKuwG-C76uN9EL-88" value="NO" style="text;html=1;strokeColor=none;fillColor=none;align=center;verticalAlign=middle;whiteSpace=wrap;rounded=0;" parent="WIyWlLk6GJQsqaUBKTNV-1" vertex="1">
          <mxGeometry x="357.5" y="1400" width="60" height="30" as="geometry" />
        </mxCell>
        <mxCell id="jYzVw2IKuwG-C76uN9EL-95" style="edgeStyle=orthogonalEdgeStyle;rounded=0;orthogonalLoop=1;jettySize=auto;html=1;exitX=0.5;exitY=1;exitDx=0;exitDy=0;" parent="WIyWlLk6GJQsqaUBKTNV-1" source="jYzVw2IKuwG-C76uN9EL-90" edge="1">
          <mxGeometry relative="1" as="geometry">
            <mxPoint x="154.71428571428578" y="1240" as="targetPoint" />
          </mxGeometry>
        </mxCell>
        <mxCell id="jYzVw2IKuwG-C76uN9EL-100" style="edgeStyle=orthogonalEdgeStyle;rounded=0;orthogonalLoop=1;jettySize=auto;html=1;exitX=0;exitY=0.5;exitDx=0;exitDy=0;entryX=0.5;entryY=0;entryDx=0;entryDy=0;" parent="WIyWlLk6GJQsqaUBKTNV-1" source="jYzVw2IKuwG-C76uN9EL-90" target="jYzVw2IKuwG-C76uN9EL-99" edge="1">
          <mxGeometry relative="1" as="geometry" />
        </mxCell>
        <mxCell id="jYzVw2IKuwG-C76uN9EL-90" value="weather == &quot;sunny" style="rhombus;whiteSpace=wrap;html=1;" parent="WIyWlLk6GJQsqaUBKTNV-1" vertex="1">
          <mxGeometry x="80" y="1100" width="150" height="80" as="geometry" />
        </mxCell>
        <mxCell id="jYzVw2IKuwG-C76uN9EL-93" style="edgeStyle=orthogonalEdgeStyle;rounded=0;orthogonalLoop=1;jettySize=auto;html=1;exitX=0.5;exitY=1;exitDx=0;exitDy=0;" parent="WIyWlLk6GJQsqaUBKTNV-1" source="jYzVw2IKuwG-C76uN9EL-92" target="jYzVw2IKuwG-C76uN9EL-94" edge="1">
          <mxGeometry relative="1" as="geometry">
            <mxPoint x="480.42857142857156" y="1680" as="targetPoint" />
          </mxGeometry>
        </mxCell>
        <mxCell id="jYzVw2IKuwG-C76uN9EL-92" value="Output(This weather are not in list)" style="shape=parallelogram;perimeter=parallelogramPerimeter;whiteSpace=wrap;html=1;fixedSize=1;" parent="WIyWlLk6GJQsqaUBKTNV-1" vertex="1">
          <mxGeometry x="420" y="1580" width="120" height="60" as="geometry" />
        </mxCell>
        <mxCell id="jYzVw2IKuwG-C76uN9EL-94" value="End" style="ellipse;whiteSpace=wrap;html=1;" parent="WIyWlLk6GJQsqaUBKTNV-1" vertex="1">
          <mxGeometry x="419.99857142857155" y="1670" width="120" height="80" as="geometry" />
        </mxCell>
        <mxCell id="jYzVw2IKuwG-C76uN9EL-96" value="YES" style="text;html=1;strokeColor=none;fillColor=none;align=center;verticalAlign=middle;whiteSpace=wrap;rounded=0;" parent="WIyWlLk6GJQsqaUBKTNV-1" vertex="1">
          <mxGeometry x="175" y="1180" width="60" height="30" as="geometry" />
        </mxCell>
        <mxCell id="jYzVw2IKuwG-C76uN9EL-97" value="NO" style="text;html=1;strokeColor=none;fillColor=none;align=center;verticalAlign=middle;whiteSpace=wrap;rounded=0;" parent="WIyWlLk6GJQsqaUBKTNV-1" vertex="1">
          <mxGeometry x="10" y="1110" width="60" height="30" as="geometry" />
        </mxCell>
        <mxCell id="jYzVw2IKuwG-C76uN9EL-102" style="edgeStyle=orthogonalEdgeStyle;rounded=0;orthogonalLoop=1;jettySize=auto;html=1;exitX=0.5;exitY=1;exitDx=0;exitDy=0;" parent="WIyWlLk6GJQsqaUBKTNV-1" source="jYzVw2IKuwG-C76uN9EL-98" edge="1">
          <mxGeometry relative="1" as="geometry">
            <mxPoint x="140.57142857142867" y="1560" as="targetPoint" />
          </mxGeometry>
        </mxCell>
        <mxCell id="jYzVw2IKuwG-C76uN9EL-98" value="Output(Wear your favourite T-shirt, shorts and sandals)" style="shape=parallelogram;perimeter=parallelogramPerimeter;whiteSpace=wrap;html=1;fixedSize=1;" parent="WIyWlLk6GJQsqaUBKTNV-1" vertex="1">
          <mxGeometry x="80" y="1240" width="120" height="60" as="geometry" />
        </mxCell>
        <mxCell id="jYzVw2IKuwG-C76uN9EL-101" style="edgeStyle=orthogonalEdgeStyle;rounded=0;orthogonalLoop=1;jettySize=auto;html=1;exitX=0.5;exitY=1;exitDx=0;exitDy=0;" parent="WIyWlLk6GJQsqaUBKTNV-1" source="jYzVw2IKuwG-C76uN9EL-99" edge="1">
          <mxGeometry relative="1" as="geometry">
            <mxPoint x="240" y="1560" as="targetPoint" />
            <Array as="points">
              <mxPoint x="20" y="1560" />
            </Array>
          </mxGeometry>
        </mxCell>
        <mxCell id="jYzVw2IKuwG-C76uN9EL-99" value="Output(Wear coat, beautiful sweater, blue jeans and boots&lt;span style=&quot;background-color: initial;&quot;&gt;)&lt;/span&gt;" style="shape=parallelogram;perimeter=parallelogramPerimeter;whiteSpace=wrap;html=1;fixedSize=1;" parent="WIyWlLk6GJQsqaUBKTNV-1" vertex="1">
          <mxGeometry x="-40" y="1290" width="120" height="60" as="geometry" />
        </mxCell>
      </root>
    </mxGraphModel>
  </diagram>
</mxfile>
